<mxfile host="app.diagrams.net" agent="Mozilla/5.0 (Windows NT 10.0; Win64; x64) AppleWebKit/537.36 (KHTML, like Gecko) Chrome/131.0.0.0 Safari/537.36" version="26.0.3">
  <diagram name="Page-1" id="loTP32G7AHd_blTVozKu">
    <mxGraphModel dx="3557" dy="1940" grid="1" gridSize="10" guides="1" tooltips="1" connect="1" arrows="1" fold="1" page="1" pageScale="1" pageWidth="3840" pageHeight="2160" background="#FFFFFF" math="0" shadow="0">
      <root>
        <mxCell id="0" />
        <mxCell id="1" parent="0" />
        <mxCell id="i0nZwowpKzq9zR_XvQ2A-1" value="" style="shape=image;verticalLabelPosition=bottom;labelBackgroundColor=default;verticalAlign=top;aspect=fixed;imageAspect=0;image=https://uk.winwingsim.com/upload/picture/2023-05-24/upload_206310b41920d05b82a4babfa39c8cac.jpg;movable=1;resizable=1;rotatable=1;deletable=1;editable=1;locked=0;connectable=1;clipPath=inset(8% 10.67% 11.33% 10.33%);" parent="1" vertex="1">
          <mxGeometry x="1200" y="223" width="1811.78" height="1850" as="geometry" />
        </mxCell>
        <mxCell id="i0nZwowpKzq9zR_XvQ2A-2" value="&lt;font style=&quot;font-size: 120px;&quot;&gt;Winwing Orion Throttle Base II + F18 Handle&lt;/font&gt;" style="text;strokeColor=none;fillColor=none;html=1;fontSize=24;fontStyle=1;verticalAlign=middle;align=left;fontFamily=Helvetica;" parent="1" vertex="1">
          <mxGeometry x="23" y="17" width="3790" height="153" as="geometry" />
        </mxCell>
        <mxCell id="i0nZwowpKzq9zR_XvQ2A-79" style="edgeStyle=orthogonalEdgeStyle;rounded=0;orthogonalLoop=1;jettySize=auto;html=1;exitX=1;exitY=0.25;exitDx=0;exitDy=0;endArrow=none;endFill=0;strokeWidth=10;fillColor=#e51400;strokeColor=#B20000;" parent="1" source="i0nZwowpKzq9zR_XvQ2A-3" edge="1">
          <mxGeometry relative="1" as="geometry">
            <mxPoint x="1780" y="363" as="targetPoint" />
            <Array as="points">
              <mxPoint x="1200" y="386" />
              <mxPoint x="1200" y="303" />
              <mxPoint x="1780" y="303" />
            </Array>
          </mxGeometry>
        </mxCell>
        <mxCell id="i0nZwowpKzq9zR_XvQ2A-3" value="" style="rounded=0;whiteSpace=wrap;html=1;strokeWidth=4;" parent="1" vertex="1">
          <mxGeometry x="760" y="370" width="400" height="60" as="geometry" />
        </mxCell>
        <mxCell id="i0nZwowpKzq9zR_XvQ2A-78" style="edgeStyle=orthogonalEdgeStyle;rounded=0;orthogonalLoop=1;jettySize=auto;html=1;exitX=1;exitY=0.473;exitDx=0;exitDy=0;strokeWidth=10;endArrow=none;endFill=0;fillColor=#e51400;strokeColor=#B20000;exitPerimeter=0;" parent="1" source="i0nZwowpKzq9zR_XvQ2A-6" edge="1">
          <mxGeometry relative="1" as="geometry">
            <mxPoint x="1960" y="373" as="targetPoint" />
            <Array as="points">
              <mxPoint x="1110" y="321" />
              <mxPoint x="1110" y="273" />
              <mxPoint x="1961" y="273" />
              <mxPoint x="1961" y="373" />
            </Array>
          </mxGeometry>
        </mxCell>
        <mxCell id="i0nZwowpKzq9zR_XvQ2A-6" value="" style="rounded=0;whiteSpace=wrap;html=1;strokeWidth=4;" parent="1" vertex="1">
          <mxGeometry x="760" y="292" width="400" height="60" as="geometry" />
        </mxCell>
        <mxCell id="i0nZwowpKzq9zR_XvQ2A-80" style="edgeStyle=orthogonalEdgeStyle;rounded=0;orthogonalLoop=1;jettySize=auto;html=1;exitX=1;exitY=0.25;exitDx=0;exitDy=0;strokeWidth=10;endArrow=none;endFill=0;fillColor=#e51400;strokeColor=#B20000;" parent="1" source="i0nZwowpKzq9zR_XvQ2A-7" edge="1">
          <mxGeometry relative="1" as="geometry">
            <mxPoint x="1670" y="383" as="targetPoint" />
            <Array as="points">
              <mxPoint x="1410" y="466" />
              <mxPoint x="1410" y="333" />
              <mxPoint x="1671" y="333" />
            </Array>
          </mxGeometry>
        </mxCell>
        <mxCell id="i0nZwowpKzq9zR_XvQ2A-7" value="" style="rounded=0;whiteSpace=wrap;html=1;strokeWidth=4;" parent="1" vertex="1">
          <mxGeometry x="760" y="450" width="400" height="60" as="geometry" />
        </mxCell>
        <mxCell id="i0nZwowpKzq9zR_XvQ2A-8" value="" style="rounded=0;whiteSpace=wrap;html=1;strokeWidth=4;" parent="1" vertex="1">
          <mxGeometry x="2294" y="154" width="400" height="60" as="geometry" />
        </mxCell>
        <mxCell id="i0nZwowpKzq9zR_XvQ2A-9" value="" style="rounded=0;whiteSpace=wrap;html=1;strokeWidth=4;" parent="1" vertex="1">
          <mxGeometry x="2294" y="214" width="400" height="60" as="geometry" />
        </mxCell>
        <mxCell id="i0nZwowpKzq9zR_XvQ2A-81" style="edgeStyle=orthogonalEdgeStyle;rounded=0;orthogonalLoop=1;jettySize=auto;html=1;exitX=1;exitY=0.5;exitDx=0;exitDy=0;endArrow=none;endFill=0;strokeWidth=10;fillColor=#e51400;strokeColor=#B20000;" parent="1" source="i0nZwowpKzq9zR_XvQ2A-12" edge="1">
          <mxGeometry relative="1" as="geometry">
            <mxPoint x="1470" y="573" as="targetPoint" />
            <Array as="points">
              <mxPoint x="560" y="573" />
            </Array>
          </mxGeometry>
        </mxCell>
        <mxCell id="i0nZwowpKzq9zR_XvQ2A-12" value="" style="rounded=0;whiteSpace=wrap;html=1;strokeWidth=4;" parent="1" vertex="1">
          <mxGeometry x="160" y="540" width="400" height="60" as="geometry" />
        </mxCell>
        <mxCell id="i0nZwowpKzq9zR_XvQ2A-13" value="" style="rounded=0;whiteSpace=wrap;html=1;strokeWidth=4;" parent="1" vertex="1">
          <mxGeometry x="160" y="600" width="400" height="60" as="geometry" />
        </mxCell>
        <mxCell id="i0nZwowpKzq9zR_XvQ2A-14" value="" style="rounded=0;whiteSpace=wrap;html=1;strokeWidth=4;" parent="1" vertex="1">
          <mxGeometry x="160" y="660" width="400" height="60" as="geometry" />
        </mxCell>
        <mxCell id="i0nZwowpKzq9zR_XvQ2A-82" style="edgeStyle=orthogonalEdgeStyle;rounded=0;orthogonalLoop=1;jettySize=auto;html=1;exitX=1;exitY=0.5;exitDx=0;exitDy=0;strokeWidth=10;fillColor=#e51400;strokeColor=#B20000;endArrow=none;endFill=0;" parent="1" source="i0nZwowpKzq9zR_XvQ2A-15" edge="1">
          <mxGeometry relative="1" as="geometry">
            <mxPoint x="1990" y="693" as="targetPoint" />
            <Array as="points">
              <mxPoint x="700" y="826" />
              <mxPoint x="700" y="693" />
            </Array>
          </mxGeometry>
        </mxCell>
        <mxCell id="i0nZwowpKzq9zR_XvQ2A-15" value="" style="rounded=0;whiteSpace=wrap;html=1;strokeWidth=4;" parent="1" vertex="1">
          <mxGeometry x="160" y="796" width="400" height="60" as="geometry" />
        </mxCell>
        <mxCell id="i0nZwowpKzq9zR_XvQ2A-16" value="" style="rounded=0;whiteSpace=wrap;html=1;strokeWidth=4;" parent="1" vertex="1">
          <mxGeometry x="160" y="856" width="400" height="60" as="geometry" />
        </mxCell>
        <mxCell id="i0nZwowpKzq9zR_XvQ2A-17" value="" style="rounded=0;whiteSpace=wrap;html=1;strokeWidth=4;" parent="1" vertex="1">
          <mxGeometry x="160" y="916" width="400" height="60" as="geometry" />
        </mxCell>
        <mxCell id="i0nZwowpKzq9zR_XvQ2A-18" value="" style="rounded=0;whiteSpace=wrap;html=1;strokeWidth=4;" parent="1" vertex="1">
          <mxGeometry x="160" y="976" width="400" height="60" as="geometry" />
        </mxCell>
        <mxCell id="i0nZwowpKzq9zR_XvQ2A-19" value="" style="rounded=0;whiteSpace=wrap;html=1;strokeWidth=4;" parent="1" vertex="1">
          <mxGeometry x="160" y="1036" width="400" height="60" as="geometry" />
        </mxCell>
        <mxCell id="i0nZwowpKzq9zR_XvQ2A-83" style="edgeStyle=orthogonalEdgeStyle;rounded=0;orthogonalLoop=1;jettySize=auto;html=1;exitX=1;exitY=0.5;exitDx=0;exitDy=0;fillColor=#e51400;strokeColor=#B20000;strokeWidth=10;endArrow=none;endFill=0;" parent="1" source="i0nZwowpKzq9zR_XvQ2A-20" edge="1">
          <mxGeometry relative="1" as="geometry">
            <mxPoint x="1990" y="963" as="targetPoint" />
            <Array as="points">
              <mxPoint x="1160" y="963" />
            </Array>
          </mxGeometry>
        </mxCell>
        <mxCell id="i0nZwowpKzq9zR_XvQ2A-20" value="" style="rounded=0;whiteSpace=wrap;html=1;strokeWidth=4;" parent="1" vertex="1">
          <mxGeometry x="760" y="938" width="400" height="60" as="geometry" />
        </mxCell>
        <mxCell id="i0nZwowpKzq9zR_XvQ2A-96" style="edgeStyle=orthogonalEdgeStyle;rounded=1;orthogonalLoop=1;jettySize=auto;html=1;exitX=0.124;exitY=0.009;exitDx=0;exitDy=0;fillColor=#e51400;strokeColor=#B20000;strokeWidth=10;endArrow=none;endFill=0;exitPerimeter=0;curved=0;" parent="1" source="i0nZwowpKzq9zR_XvQ2A-21" edge="1">
          <mxGeometry relative="1" as="geometry">
            <mxPoint x="2050" y="1503" as="targetPoint" />
            <Array as="points">
              <mxPoint x="2170" y="1693" />
              <mxPoint x="2080" y="1693" />
              <mxPoint x="2080" y="1563" />
              <mxPoint x="2050" y="1563" />
            </Array>
          </mxGeometry>
        </mxCell>
        <mxCell id="i0nZwowpKzq9zR_XvQ2A-21" value="" style="rounded=0;whiteSpace=wrap;html=1;strokeWidth=4;" parent="1" vertex="1">
          <mxGeometry x="2120" y="1964" width="400" height="60" as="geometry" />
        </mxCell>
        <mxCell id="i0nZwowpKzq9zR_XvQ2A-22" value="" style="rounded=0;whiteSpace=wrap;html=1;strokeWidth=4;" parent="1" vertex="1">
          <mxGeometry x="2120" y="2024" width="400" height="60" as="geometry" />
        </mxCell>
        <mxCell id="i0nZwowpKzq9zR_XvQ2A-23" value="" style="rounded=0;whiteSpace=wrap;html=1;strokeWidth=4;" parent="1" vertex="1">
          <mxGeometry x="2120" y="2084" width="400" height="60" as="geometry" />
        </mxCell>
        <mxCell id="i0nZwowpKzq9zR_XvQ2A-85" style="edgeStyle=orthogonalEdgeStyle;rounded=0;orthogonalLoop=1;jettySize=auto;html=1;exitX=1;exitY=0.5;exitDx=0;exitDy=0;fillColor=#e51400;strokeColor=#B20000;strokeWidth=10;endArrow=none;endFill=0;" parent="1" source="i0nZwowpKzq9zR_XvQ2A-24" edge="1">
          <mxGeometry relative="1" as="geometry">
            <mxPoint x="1460" y="1303" as="targetPoint" />
          </mxGeometry>
        </mxCell>
        <mxCell id="i0nZwowpKzq9zR_XvQ2A-24" value="" style="rounded=0;whiteSpace=wrap;html=1;strokeWidth=4;" parent="1" vertex="1">
          <mxGeometry x="160" y="1274" width="400" height="60" as="geometry" />
        </mxCell>
        <mxCell id="i0nZwowpKzq9zR_XvQ2A-25" value="" style="rounded=0;whiteSpace=wrap;html=1;strokeWidth=4;" parent="1" vertex="1">
          <mxGeometry x="160" y="1334" width="400" height="60" as="geometry" />
        </mxCell>
        <mxCell id="i0nZwowpKzq9zR_XvQ2A-26" value="" style="rounded=0;whiteSpace=wrap;html=1;strokeWidth=4;" parent="1" vertex="1">
          <mxGeometry x="160" y="1394" width="400" height="60" as="geometry" />
        </mxCell>
        <mxCell id="i0nZwowpKzq9zR_XvQ2A-87" style="edgeStyle=orthogonalEdgeStyle;rounded=1;orthogonalLoop=1;jettySize=auto;html=1;exitX=1;exitY=0.5;exitDx=0;exitDy=0;fillColor=#e51400;strokeColor=#B20000;strokeWidth=10;curved=0;endArrow=none;endFill=0;" parent="1" source="i0nZwowpKzq9zR_XvQ2A-27" edge="1">
          <mxGeometry relative="1" as="geometry">
            <mxPoint x="1790" y="1343" as="targetPoint" />
            <Array as="points">
              <mxPoint x="1230" y="1583" />
              <mxPoint x="1230" y="1423" />
              <mxPoint x="1700" y="1423" />
              <mxPoint x="1700" y="1343" />
            </Array>
          </mxGeometry>
        </mxCell>
        <mxCell id="i0nZwowpKzq9zR_XvQ2A-27" value="" style="rounded=0;whiteSpace=wrap;html=1;strokeWidth=4;" parent="1" vertex="1">
          <mxGeometry x="760" y="1554" width="400" height="60" as="geometry" />
        </mxCell>
        <mxCell id="i0nZwowpKzq9zR_XvQ2A-86" style="edgeStyle=orthogonalEdgeStyle;rounded=0;orthogonalLoop=1;jettySize=auto;html=1;exitX=1;exitY=0.5;exitDx=0;exitDy=0;fillColor=#e51400;strokeColor=#B20000;strokeWidth=10;endArrow=none;endFill=0;" parent="1" source="i0nZwowpKzq9zR_XvQ2A-28" edge="1">
          <mxGeometry relative="1" as="geometry">
            <mxPoint x="1630" y="1373" as="targetPoint" />
            <Array as="points">
              <mxPoint x="640" y="1539" />
              <mxPoint x="640" y="1383" />
              <mxPoint x="1631" y="1383" />
              <mxPoint x="1631" y="1373" />
            </Array>
          </mxGeometry>
        </mxCell>
        <mxCell id="i0nZwowpKzq9zR_XvQ2A-28" value="" style="rounded=0;whiteSpace=wrap;html=1;strokeWidth=4;" parent="1" vertex="1">
          <mxGeometry x="160" y="1510" width="400" height="60" as="geometry" />
        </mxCell>
        <mxCell id="i0nZwowpKzq9zR_XvQ2A-29" value="" style="rounded=0;whiteSpace=wrap;html=1;strokeWidth=4;" parent="1" vertex="1">
          <mxGeometry x="160" y="1570" width="400" height="60" as="geometry" />
        </mxCell>
        <mxCell id="i0nZwowpKzq9zR_XvQ2A-30" value="" style="rounded=0;whiteSpace=wrap;html=1;strokeWidth=4;" parent="1" vertex="1">
          <mxGeometry x="160" y="1812" width="400" height="60" as="geometry" />
        </mxCell>
        <mxCell id="i0nZwowpKzq9zR_XvQ2A-31" value="" style="rounded=0;whiteSpace=wrap;html=1;strokeWidth=4;" parent="1" vertex="1">
          <mxGeometry x="160" y="1872" width="400" height="60" as="geometry" />
        </mxCell>
        <mxCell id="i0nZwowpKzq9zR_XvQ2A-32" value="" style="rounded=0;whiteSpace=wrap;html=1;strokeWidth=4;" parent="1" vertex="1">
          <mxGeometry x="640" y="1992" width="400" height="60" as="geometry" />
        </mxCell>
        <mxCell id="i0nZwowpKzq9zR_XvQ2A-33" value="" style="rounded=0;whiteSpace=wrap;html=1;strokeWidth=4;" parent="1" vertex="1">
          <mxGeometry x="640" y="2052" width="400" height="60" as="geometry" />
        </mxCell>
        <mxCell id="i0nZwowpKzq9zR_XvQ2A-97" style="edgeStyle=orthogonalEdgeStyle;rounded=1;orthogonalLoop=1;jettySize=auto;html=1;exitX=0.25;exitY=0;exitDx=0;exitDy=0;fillColor=#e51400;strokeColor=#B20000;endArrow=none;endFill=0;strokeWidth=10;curved=0;" parent="1" source="i0nZwowpKzq9zR_XvQ2A-34" edge="1">
          <mxGeometry relative="1" as="geometry">
            <mxPoint x="2150.0000000000005" y="1563" as="targetPoint" />
            <Array as="points">
              <mxPoint x="2360" y="1613" />
              <mxPoint x="2151" y="1613" />
              <mxPoint x="2151" y="1563" />
            </Array>
          </mxGeometry>
        </mxCell>
        <mxCell id="i0nZwowpKzq9zR_XvQ2A-34" value="" style="rounded=0;whiteSpace=wrap;html=1;strokeWidth=4;" parent="1" vertex="1">
          <mxGeometry x="2260" y="1844" width="400" height="60" as="geometry" />
        </mxCell>
        <mxCell id="i0nZwowpKzq9zR_XvQ2A-102" style="edgeStyle=orthogonalEdgeStyle;rounded=1;orthogonalLoop=1;jettySize=auto;html=1;exitX=0;exitY=0.5;exitDx=0;exitDy=0;fillColor=#e51400;strokeColor=#B20000;curved=0;strokeWidth=10;endArrow=none;endFill=0;" parent="1" source="i0nZwowpKzq9zR_XvQ2A-42" edge="1">
          <mxGeometry relative="1" as="geometry">
            <mxPoint x="2510" y="1333" as="targetPoint" />
          </mxGeometry>
        </mxCell>
        <mxCell id="i0nZwowpKzq9zR_XvQ2A-35" value="" style="rounded=0;whiteSpace=wrap;html=1;strokeWidth=4;" parent="1" vertex="1">
          <mxGeometry x="2800" y="1696" width="400" height="60" as="geometry" />
        </mxCell>
        <mxCell id="i0nZwowpKzq9zR_XvQ2A-100" style="edgeStyle=orthogonalEdgeStyle;rounded=1;orthogonalLoop=1;jettySize=auto;html=1;exitX=0;exitY=0.5;exitDx=0;exitDy=0;fillColor=#e51400;strokeColor=#B20000;strokeWidth=10;curved=0;endArrow=none;endFill=0;" parent="1" source="i0nZwowpKzq9zR_XvQ2A-36" edge="1">
          <mxGeometry relative="1" as="geometry">
            <mxPoint x="2310" y="1403" as="targetPoint" />
            <Array as="points">
              <mxPoint x="2700" y="1957" />
              <mxPoint x="2700" y="1783" />
              <mxPoint x="2420" y="1783" />
              <mxPoint x="2420" y="1453" />
              <mxPoint x="2310" y="1453" />
            </Array>
          </mxGeometry>
        </mxCell>
        <mxCell id="i0nZwowpKzq9zR_XvQ2A-36" value="" style="rounded=0;whiteSpace=wrap;html=1;strokeWidth=4;" parent="1" vertex="1">
          <mxGeometry x="2800" y="1928" width="400" height="60" as="geometry" />
        </mxCell>
        <mxCell id="i0nZwowpKzq9zR_XvQ2A-37" value="" style="rounded=0;whiteSpace=wrap;html=1;strokeWidth=4;" parent="1" vertex="1">
          <mxGeometry x="2800" y="1988" width="400" height="60" as="geometry" />
        </mxCell>
        <mxCell id="i0nZwowpKzq9zR_XvQ2A-38" value="" style="rounded=0;whiteSpace=wrap;html=1;strokeWidth=4;" parent="1" vertex="1">
          <mxGeometry x="2800" y="2048" width="400" height="60" as="geometry" />
        </mxCell>
        <mxCell id="i0nZwowpKzq9zR_XvQ2A-103" style="edgeStyle=orthogonalEdgeStyle;rounded=1;orthogonalLoop=1;jettySize=auto;html=1;exitX=0;exitY=0.5;exitDx=0;exitDy=0;fillColor=#e51400;strokeColor=#B20000;strokeWidth=10;endArrow=none;endFill=0;curved=0;" parent="1" source="i0nZwowpKzq9zR_XvQ2A-39" edge="1">
          <mxGeometry relative="1" as="geometry">
            <mxPoint x="2610" y="1193" as="targetPoint" />
            <Array as="points">
              <mxPoint x="3300" y="1602" />
              <mxPoint x="3300" y="1543" />
              <mxPoint x="2610" y="1543" />
            </Array>
          </mxGeometry>
        </mxCell>
        <mxCell id="i0nZwowpKzq9zR_XvQ2A-39" value="" style="rounded=0;whiteSpace=wrap;html=1;strokeWidth=4;" parent="1" vertex="1">
          <mxGeometry x="3320" y="1570" width="400" height="60" as="geometry" />
        </mxCell>
        <mxCell id="i0nZwowpKzq9zR_XvQ2A-40" value="" style="rounded=0;whiteSpace=wrap;html=1;strokeWidth=4;" parent="1" vertex="1">
          <mxGeometry x="3320" y="1630" width="400" height="60" as="geometry" />
        </mxCell>
        <mxCell id="i0nZwowpKzq9zR_XvQ2A-41" value="" style="rounded=0;whiteSpace=wrap;html=1;strokeWidth=4;" parent="1" vertex="1">
          <mxGeometry x="3320" y="1690" width="400" height="60" as="geometry" />
        </mxCell>
        <mxCell id="i0nZwowpKzq9zR_XvQ2A-42" value="" style="rounded=0;whiteSpace=wrap;html=1;strokeWidth=4;" parent="1" vertex="1">
          <mxGeometry x="2800" y="1576" width="400" height="60" as="geometry" />
        </mxCell>
        <mxCell id="i0nZwowpKzq9zR_XvQ2A-43" value="" style="rounded=0;whiteSpace=wrap;html=1;strokeWidth=4;" parent="1" vertex="1">
          <mxGeometry x="2800" y="1636" width="400" height="60" as="geometry" />
        </mxCell>
        <mxCell id="i0nZwowpKzq9zR_XvQ2A-101" style="edgeStyle=orthogonalEdgeStyle;rounded=1;orthogonalLoop=1;jettySize=auto;html=1;exitX=0;exitY=0.5;exitDx=0;exitDy=0;fillColor=#e51400;strokeColor=#B20000;curved=0;strokeWidth=10;endArrow=none;endFill=0;" parent="1" source="i0nZwowpKzq9zR_XvQ2A-49" edge="1">
          <mxGeometry relative="1" as="geometry">
            <mxPoint x="2370" y="1283" as="targetPoint" />
            <Array as="points">
              <mxPoint x="2760" y="1810" />
              <mxPoint x="2760" y="1753" />
              <mxPoint x="2470" y="1753" />
              <mxPoint x="2470" y="1393" />
              <mxPoint x="2400" y="1393" />
              <mxPoint x="2400" y="1283" />
            </Array>
          </mxGeometry>
        </mxCell>
        <mxCell id="i0nZwowpKzq9zR_XvQ2A-49" value="" style="rounded=0;whiteSpace=wrap;html=1;strokeWidth=4;" parent="1" vertex="1">
          <mxGeometry x="2800" y="1782" width="400" height="60" as="geometry" />
        </mxCell>
        <mxCell id="i0nZwowpKzq9zR_XvQ2A-50" value="" style="rounded=0;whiteSpace=wrap;html=1;strokeWidth=4;" parent="1" vertex="1">
          <mxGeometry x="2800" y="1842" width="400" height="60" as="geometry" />
        </mxCell>
        <mxCell id="i0nZwowpKzq9zR_XvQ2A-106" style="edgeStyle=orthogonalEdgeStyle;rounded=1;orthogonalLoop=1;jettySize=auto;html=1;exitX=0;exitY=0.5;exitDx=0;exitDy=0;fillColor=#e51400;strokeColor=#B20000;strokeWidth=10;endArrow=none;endFill=0;curved=0;" parent="1" source="i0nZwowpKzq9zR_XvQ2A-52" edge="1">
          <mxGeometry relative="1" as="geometry">
            <mxPoint x="2840" y="1093" as="targetPoint" />
            <mxPoint x="3320" y="1360" as="sourcePoint" />
            <Array as="points">
              <mxPoint x="3320" y="1330" />
              <mxPoint x="2840" y="1330" />
            </Array>
          </mxGeometry>
        </mxCell>
        <mxCell id="i0nZwowpKzq9zR_XvQ2A-51" value="" style="rounded=0;whiteSpace=wrap;html=1;strokeWidth=4;" parent="1" vertex="1">
          <mxGeometry x="3320" y="1236" width="400" height="60" as="geometry" />
        </mxCell>
        <mxCell id="i0nZwowpKzq9zR_XvQ2A-52" value="" style="rounded=0;whiteSpace=wrap;html=1;strokeWidth=4;" parent="1" vertex="1">
          <mxGeometry x="3320" y="1296" width="400" height="60" as="geometry" />
        </mxCell>
        <mxCell id="i0nZwowpKzq9zR_XvQ2A-53" value="" style="rounded=0;whiteSpace=wrap;html=1;strokeWidth=4;" parent="1" vertex="1">
          <mxGeometry x="3320" y="1356" width="400" height="60" as="geometry" />
        </mxCell>
        <mxCell id="i0nZwowpKzq9zR_XvQ2A-107" style="edgeStyle=orthogonalEdgeStyle;rounded=1;orthogonalLoop=1;jettySize=auto;html=1;exitX=0;exitY=0.5;exitDx=0;exitDy=0;endArrow=none;endFill=0;fillColor=#e51400;strokeColor=#B20000;curved=0;strokeWidth=10;" parent="1" source="i0nZwowpKzq9zR_XvQ2A-54" edge="1">
          <mxGeometry relative="1" as="geometry">
            <mxPoint x="2720" y="1013" as="targetPoint" />
            <Array as="points">
              <mxPoint x="3020" y="1100" />
              <mxPoint x="3020" y="973" />
              <mxPoint x="2720" y="973" />
            </Array>
          </mxGeometry>
        </mxCell>
        <mxCell id="i0nZwowpKzq9zR_XvQ2A-54" value="" style="rounded=0;whiteSpace=wrap;html=1;strokeWidth=4;" parent="1" vertex="1">
          <mxGeometry x="3320" y="1068" width="400" height="60" as="geometry" />
        </mxCell>
        <mxCell id="i0nZwowpKzq9zR_XvQ2A-55" value="" style="rounded=0;whiteSpace=wrap;html=1;strokeWidth=4;" parent="1" vertex="1">
          <mxGeometry x="3320" y="1128" width="400" height="60" as="geometry" />
        </mxCell>
        <mxCell id="i0nZwowpKzq9zR_XvQ2A-109" style="edgeStyle=orthogonalEdgeStyle;rounded=1;orthogonalLoop=1;jettySize=auto;html=1;curved=0;fillColor=#e51400;strokeColor=#B20000;strokeWidth=10;endArrow=none;endFill=0;exitX=-0.008;exitY=0.469;exitDx=0;exitDy=0;exitPerimeter=0;" parent="1" source="i0nZwowpKzq9zR_XvQ2A-56" edge="1">
          <mxGeometry relative="1" as="geometry">
            <mxPoint x="2620" y="963" as="targetPoint" />
            <mxPoint x="3260" y="953" as="sourcePoint" />
            <Array as="points">
              <mxPoint x="3317" y="940" />
              <mxPoint x="2620" y="940" />
            </Array>
          </mxGeometry>
        </mxCell>
        <mxCell id="i0nZwowpKzq9zR_XvQ2A-56" value="" style="rounded=0;whiteSpace=wrap;html=1;strokeWidth=4;" parent="1" vertex="1">
          <mxGeometry x="3320" y="908" width="400" height="60" as="geometry" />
        </mxCell>
        <mxCell id="i0nZwowpKzq9zR_XvQ2A-57" value="" style="rounded=0;whiteSpace=wrap;html=1;strokeWidth=4;" parent="1" vertex="1">
          <mxGeometry x="3320" y="968" width="400" height="60" as="geometry" />
        </mxCell>
        <mxCell id="i0nZwowpKzq9zR_XvQ2A-58" value="" style="rounded=0;whiteSpace=wrap;html=1;strokeWidth=4;" parent="1" vertex="1">
          <mxGeometry x="2820" y="212" width="400" height="60" as="geometry" />
        </mxCell>
        <mxCell id="i0nZwowpKzq9zR_XvQ2A-59" value="" style="rounded=0;whiteSpace=wrap;html=1;strokeWidth=4;" parent="1" vertex="1">
          <mxGeometry x="2820" y="272" width="400" height="60" as="geometry" />
        </mxCell>
        <mxCell id="i0nZwowpKzq9zR_XvQ2A-122" style="edgeStyle=orthogonalEdgeStyle;rounded=1;orthogonalLoop=1;jettySize=auto;html=1;exitX=0.25;exitY=1;exitDx=0;exitDy=0;fillColor=#e51400;strokeColor=#B20000;curved=0;strokeWidth=10;endArrow=none;endFill=0;" parent="1" source="i0nZwowpKzq9zR_XvQ2A-60" edge="1">
          <mxGeometry relative="1" as="geometry">
            <mxPoint x="2120" y="573" as="targetPoint" />
            <Array as="points">
              <mxPoint x="2920" y="483" />
              <mxPoint x="2270" y="483" />
              <mxPoint x="2270" y="573" />
            </Array>
          </mxGeometry>
        </mxCell>
        <mxCell id="i0nZwowpKzq9zR_XvQ2A-60" value="" style="rounded=0;whiteSpace=wrap;html=1;strokeWidth=4;" parent="1" vertex="1">
          <mxGeometry x="2820" y="332" width="400" height="60" as="geometry" />
        </mxCell>
        <mxCell id="i0nZwowpKzq9zR_XvQ2A-61" value="" style="rounded=0;whiteSpace=wrap;html=1;strokeWidth=4;" parent="1" vertex="1">
          <mxGeometry x="3320" y="212" width="400" height="60" as="geometry" />
        </mxCell>
        <mxCell id="i0nZwowpKzq9zR_XvQ2A-62" value="" style="rounded=0;whiteSpace=wrap;html=1;strokeWidth=4;" parent="1" vertex="1">
          <mxGeometry x="3320" y="272" width="400" height="60" as="geometry" />
        </mxCell>
        <mxCell id="i0nZwowpKzq9zR_XvQ2A-123" style="edgeStyle=orthogonalEdgeStyle;rounded=1;orthogonalLoop=1;jettySize=auto;html=1;exitX=0.25;exitY=1;exitDx=0;exitDy=0;fillColor=#e51400;strokeColor=#B20000;curved=0;strokeWidth=10;endArrow=none;endFill=0;" parent="1" source="i0nZwowpKzq9zR_XvQ2A-63" edge="1">
          <mxGeometry relative="1" as="geometry">
            <mxPoint x="2080" y="823" as="targetPoint" />
            <Array as="points">
              <mxPoint x="3420" y="533" />
              <mxPoint x="2390" y="533" />
              <mxPoint x="2390" y="663" />
              <mxPoint x="2190" y="663" />
              <mxPoint x="2190" y="823" />
            </Array>
          </mxGeometry>
        </mxCell>
        <mxCell id="i0nZwowpKzq9zR_XvQ2A-63" value="" style="rounded=0;whiteSpace=wrap;html=1;strokeWidth=4;" parent="1" vertex="1">
          <mxGeometry x="3320" y="332" width="400" height="60" as="geometry" />
        </mxCell>
        <mxCell id="i0nZwowpKzq9zR_XvQ2A-64" value="" style="rounded=0;whiteSpace=wrap;html=1;strokeWidth=4;" parent="1" vertex="1">
          <mxGeometry x="2820" y="92" width="400" height="60" as="geometry" />
        </mxCell>
        <mxCell id="i0nZwowpKzq9zR_XvQ2A-65" value="" style="rounded=0;whiteSpace=wrap;html=1;strokeWidth=4;" parent="1" vertex="1">
          <mxGeometry x="2820" y="152" width="400" height="60" as="geometry" />
        </mxCell>
        <mxCell id="i0nZwowpKzq9zR_XvQ2A-66" value="" style="rounded=0;whiteSpace=wrap;html=1;strokeWidth=4;" parent="1" vertex="1">
          <mxGeometry x="2680" y="654" width="400" height="60" as="geometry" />
        </mxCell>
        <mxCell id="i0nZwowpKzq9zR_XvQ2A-67" value="" style="rounded=0;whiteSpace=wrap;html=1;strokeWidth=4;" parent="1" vertex="1">
          <mxGeometry x="2680" y="714" width="400" height="60" as="geometry" />
        </mxCell>
        <mxCell id="i0nZwowpKzq9zR_XvQ2A-116" style="edgeStyle=orthogonalEdgeStyle;rounded=1;orthogonalLoop=1;jettySize=auto;html=1;exitX=0;exitY=0.5;exitDx=0;exitDy=0;fillColor=#e51400;strokeColor=#B20000;strokeWidth=10;curved=0;endArrow=none;endFill=0;" parent="1" source="i0nZwowpKzq9zR_XvQ2A-68" edge="1">
          <mxGeometry relative="1" as="geometry">
            <mxPoint x="2240" y="843" as="targetPoint" />
            <Array as="points">
              <mxPoint x="3190" y="625" />
              <mxPoint x="3190" y="583" />
              <mxPoint x="2500" y="583" />
              <mxPoint x="2500" y="693" />
              <mxPoint x="2290" y="693" />
              <mxPoint x="2290" y="843" />
            </Array>
          </mxGeometry>
        </mxCell>
        <mxCell id="i0nZwowpKzq9zR_XvQ2A-68" value="" style="rounded=0;whiteSpace=wrap;html=1;strokeWidth=4;" parent="1" vertex="1">
          <mxGeometry x="3320" y="594" width="400" height="60" as="geometry" />
        </mxCell>
        <mxCell id="i0nZwowpKzq9zR_XvQ2A-69" value="" style="rounded=0;whiteSpace=wrap;html=1;strokeWidth=4;" parent="1" vertex="1">
          <mxGeometry x="3320" y="654" width="400" height="60" as="geometry" />
        </mxCell>
        <mxCell id="i0nZwowpKzq9zR_XvQ2A-84" value="" style="rounded=0;whiteSpace=wrap;html=1;strokeWidth=4;" parent="1" vertex="1">
          <mxGeometry x="160" y="1630" width="400" height="60" as="geometry" />
        </mxCell>
        <mxCell id="i0nZwowpKzq9zR_XvQ2A-93" style="edgeStyle=orthogonalEdgeStyle;rounded=1;orthogonalLoop=1;jettySize=auto;html=1;exitX=1;exitY=0.5;exitDx=0;exitDy=0;fillColor=#e51400;strokeColor=#B20000;endArrow=none;endFill=0;strokeWidth=10;curved=0;" parent="1" source="i0nZwowpKzq9zR_XvQ2A-88" edge="1">
          <mxGeometry relative="1" as="geometry">
            <mxPoint x="1710" y="1513" as="targetPoint" />
            <Array as="points">
              <mxPoint x="630" y="1783" />
              <mxPoint x="630" y="1683" />
              <mxPoint x="1450" y="1683" />
              <mxPoint x="1450" y="1513" />
            </Array>
          </mxGeometry>
        </mxCell>
        <mxCell id="i0nZwowpKzq9zR_XvQ2A-88" value="" style="rounded=0;whiteSpace=wrap;html=1;strokeWidth=4;" parent="1" vertex="1">
          <mxGeometry x="160" y="1752" width="400" height="60" as="geometry" />
        </mxCell>
        <mxCell id="i0nZwowpKzq9zR_XvQ2A-94" style="edgeStyle=orthogonalEdgeStyle;rounded=1;orthogonalLoop=1;jettySize=auto;html=1;exitX=0.75;exitY=0;exitDx=0;exitDy=0;fillColor=#e51400;strokeColor=#B20000;endArrow=none;endFill=0;strokeWidth=10;curved=0;" parent="1" source="i0nZwowpKzq9zR_XvQ2A-89" edge="1">
          <mxGeometry relative="1" as="geometry">
            <mxPoint x="1830" y="1583" as="targetPoint" />
          </mxGeometry>
        </mxCell>
        <mxCell id="i0nZwowpKzq9zR_XvQ2A-89" value="" style="rounded=0;whiteSpace=wrap;html=1;strokeWidth=4;" parent="1" vertex="1">
          <mxGeometry x="640" y="1932" width="400" height="60" as="geometry" />
        </mxCell>
        <mxCell id="i0nZwowpKzq9zR_XvQ2A-90" value="" style="rounded=0;whiteSpace=wrap;html=1;strokeWidth=4;" parent="1" vertex="1">
          <mxGeometry x="1160" y="1992" width="400" height="60" as="geometry" />
        </mxCell>
        <mxCell id="i0nZwowpKzq9zR_XvQ2A-91" value="" style="rounded=0;whiteSpace=wrap;html=1;strokeWidth=4;" parent="1" vertex="1">
          <mxGeometry x="1160" y="2052" width="400" height="60" as="geometry" />
        </mxCell>
        <mxCell id="i0nZwowpKzq9zR_XvQ2A-95" style="edgeStyle=orthogonalEdgeStyle;rounded=1;orthogonalLoop=1;jettySize=auto;html=1;exitX=1;exitY=0.5;exitDx=0;exitDy=0;fillColor=#e51400;strokeColor=#B20000;endArrow=none;endFill=0;strokeWidth=10;curved=0;" parent="1" source="i0nZwowpKzq9zR_XvQ2A-92" edge="1">
          <mxGeometry relative="1" as="geometry">
            <mxPoint x="1990" y="1643" as="targetPoint" />
          </mxGeometry>
        </mxCell>
        <mxCell id="i0nZwowpKzq9zR_XvQ2A-92" value="" style="rounded=0;whiteSpace=wrap;html=1;strokeWidth=4;" parent="1" vertex="1">
          <mxGeometry x="1160" y="1932" width="400" height="60" as="geometry" />
        </mxCell>
        <mxCell id="i0nZwowpKzq9zR_XvQ2A-105" style="edgeStyle=orthogonalEdgeStyle;rounded=1;orthogonalLoop=1;jettySize=auto;html=1;exitX=0;exitY=0.5;exitDx=0;exitDy=0;fillColor=#e51400;strokeColor=#B20000;strokeWidth=10;curved=0;endArrow=none;endFill=0;" parent="1" source="i0nZwowpKzq9zR_XvQ2A-104" edge="1">
          <mxGeometry relative="1" as="geometry">
            <mxPoint x="2380" y="1153" as="targetPoint" />
            <Array as="points">
              <mxPoint x="2710" y="1498" />
              <mxPoint x="2710" y="1153" />
            </Array>
          </mxGeometry>
        </mxCell>
        <mxCell id="i0nZwowpKzq9zR_XvQ2A-104" value="" style="rounded=0;whiteSpace=wrap;html=1;strokeWidth=4;" parent="1" vertex="1">
          <mxGeometry x="3320" y="1466" width="400" height="60" as="geometry" />
        </mxCell>
        <mxCell id="i0nZwowpKzq9zR_XvQ2A-110" value="" style="rounded=0;whiteSpace=wrap;html=1;strokeWidth=4;" parent="1" vertex="1">
          <mxGeometry x="2680" y="774" width="400" height="60" as="geometry" />
        </mxCell>
        <mxCell id="i0nZwowpKzq9zR_XvQ2A-112" style="edgeStyle=orthogonalEdgeStyle;rounded=1;orthogonalLoop=1;jettySize=auto;html=1;exitX=0;exitY=0.5;exitDx=0;exitDy=0;curved=0;fillColor=#e51400;strokeColor=#B20000;strokeWidth=10;endArrow=none;endFill=0;" parent="1" edge="1">
          <mxGeometry relative="1" as="geometry">
            <mxPoint x="2462.0000000000005" y="923" as="targetPoint" />
            <mxPoint x="2682" y="865" as="sourcePoint" />
            <Array as="points">
              <mxPoint x="2512" y="865" />
              <mxPoint x="2512" y="923" />
            </Array>
          </mxGeometry>
        </mxCell>
        <mxCell id="i0nZwowpKzq9zR_XvQ2A-111" value="" style="rounded=0;whiteSpace=wrap;html=1;strokeWidth=4;" parent="1" vertex="1">
          <mxGeometry x="2680" y="834" width="400" height="60" as="geometry" />
        </mxCell>
        <mxCell id="i0nZwowpKzq9zR_XvQ2A-115" style="edgeStyle=orthogonalEdgeStyle;rounded=1;orthogonalLoop=1;jettySize=auto;html=1;exitX=0;exitY=0.5;exitDx=0;exitDy=0;fillColor=#e51400;strokeColor=#B20000;curved=0;strokeWidth=10;endArrow=none;endFill=0;" parent="1" source="i0nZwowpKzq9zR_XvQ2A-113" edge="1">
          <mxGeometry relative="1" as="geometry">
            <mxPoint x="2350" y="873" as="targetPoint" />
            <Array as="points">
              <mxPoint x="3150" y="783" />
              <mxPoint x="3150" y="623" />
              <mxPoint x="2580" y="623" />
              <mxPoint x="2580" y="723" />
              <mxPoint x="2350" y="723" />
            </Array>
          </mxGeometry>
        </mxCell>
        <mxCell id="i0nZwowpKzq9zR_XvQ2A-113" value="" style="rounded=0;whiteSpace=wrap;html=1;strokeWidth=4;" parent="1" vertex="1">
          <mxGeometry x="3320" y="752" width="400" height="60" as="geometry" />
        </mxCell>
        <mxCell id="i0nZwowpKzq9zR_XvQ2A-114" value="" style="rounded=0;whiteSpace=wrap;html=1;strokeWidth=4;" parent="1" vertex="1">
          <mxGeometry x="3320" y="812" width="400" height="60" as="geometry" />
        </mxCell>
        <mxCell id="i0nZwowpKzq9zR_XvQ2A-124" style="edgeStyle=orthogonalEdgeStyle;rounded=1;orthogonalLoop=1;jettySize=auto;html=1;exitX=0;exitY=0.5;exitDx=0;exitDy=0;fillColor=#e51400;strokeColor=#B20000;endArrow=none;endFill=0;curved=0;strokeWidth=10;" parent="1" source="i0nZwowpKzq9zR_XvQ2A-119" edge="1">
          <mxGeometry relative="1" as="geometry">
            <mxPoint x="2110" y="363" as="targetPoint" />
          </mxGeometry>
        </mxCell>
        <mxCell id="i0nZwowpKzq9zR_XvQ2A-119" value="" style="rounded=0;whiteSpace=wrap;html=1;strokeWidth=4;" parent="1" vertex="1">
          <mxGeometry x="2294" y="274" width="400" height="60" as="geometry" />
        </mxCell>
        <mxCell id="i0nZwowpKzq9zR_XvQ2A-120" value="" style="rounded=0;whiteSpace=wrap;html=1;strokeWidth=4;" parent="1" vertex="1">
          <mxGeometry x="2294" y="334" width="400" height="60" as="geometry" />
        </mxCell>
        <mxCell id="i0nZwowpKzq9zR_XvQ2A-121" value="" style="rounded=0;whiteSpace=wrap;html=1;strokeWidth=4;" parent="1" vertex="1">
          <mxGeometry x="2294" y="394" width="400" height="60" as="geometry" />
        </mxCell>
        <mxCell id="i0nZwowpKzq9zR_XvQ2A-126" value="" style="html=1;shadow=0;dashed=0;align=center;verticalAlign=middle;shape=mxgraph.arrows2.arrow;dy=0.6;dx=40;direction=north;notch=0;fillColor=#000000;" parent="1" vertex="1">
          <mxGeometry x="101" y="539" width="56" height="56" as="geometry" />
        </mxCell>
        <mxCell id="i0nZwowpKzq9zR_XvQ2A-128" value="" style="html=1;shadow=0;dashed=0;align=center;verticalAlign=middle;shape=mxgraph.arrows2.arrow;dy=0.6;dx=40;direction=south;notch=0;fillColor=#000000;" parent="1" vertex="1">
          <mxGeometry x="101" y="663" width="56" height="56" as="geometry" />
        </mxCell>
        <mxCell id="i0nZwowpKzq9zR_XvQ2A-129" value="" style="html=1;shadow=0;dashed=0;align=center;verticalAlign=middle;shape=mxgraph.arrows2.arrow;dy=0;dx=10;notch=0;fillColor=#000000;aspect=fixed;" parent="1" vertex="1">
          <mxGeometry x="101" y="613" width="56" height="31.11" as="geometry" />
        </mxCell>
        <mxCell id="i0nZwowpKzq9zR_XvQ2A-130" value="" style="html=1;shadow=0;dashed=0;align=center;verticalAlign=middle;shape=mxgraph.arrows2.arrow;dy=0.6;dx=40;direction=north;notch=0;fillColor=#000000;" parent="1" vertex="1">
          <mxGeometry x="101" y="1274" width="56" height="56" as="geometry" />
        </mxCell>
        <mxCell id="i0nZwowpKzq9zR_XvQ2A-131" value="" style="html=1;shadow=0;dashed=0;align=center;verticalAlign=middle;shape=mxgraph.arrows2.arrow;dy=0.6;dx=40;direction=south;notch=0;fillColor=#000000;" parent="1" vertex="1">
          <mxGeometry x="101" y="1398" width="56" height="56" as="geometry" />
        </mxCell>
        <mxCell id="i0nZwowpKzq9zR_XvQ2A-132" value="" style="html=1;shadow=0;dashed=0;align=center;verticalAlign=middle;shape=mxgraph.arrows2.arrow;dy=0;dx=10;notch=0;fillColor=#000000;aspect=fixed;" parent="1" vertex="1">
          <mxGeometry x="101" y="1348" width="56" height="31.11" as="geometry" />
        </mxCell>
        <mxCell id="i0nZwowpKzq9zR_XvQ2A-133" value="" style="html=1;shadow=0;dashed=0;align=center;verticalAlign=middle;shape=mxgraph.arrows2.arrow;dy=0.6;dx=40;direction=north;notch=0;fillColor=#000000;" parent="1" vertex="1">
          <mxGeometry x="101" y="1510" width="56" height="56" as="geometry" />
        </mxCell>
        <mxCell id="i0nZwowpKzq9zR_XvQ2A-134" value="" style="html=1;shadow=0;dashed=0;align=center;verticalAlign=middle;shape=mxgraph.arrows2.arrow;dy=0.6;dx=40;direction=south;notch=0;fillColor=#000000;" parent="1" vertex="1">
          <mxGeometry x="101" y="1634" width="56" height="56" as="geometry" />
        </mxCell>
        <mxCell id="i0nZwowpKzq9zR_XvQ2A-135" value="" style="html=1;shadow=0;dashed=0;align=center;verticalAlign=middle;shape=mxgraph.arrows2.arrow;dy=0;dx=10;notch=0;fillColor=#000000;aspect=fixed;" parent="1" vertex="1">
          <mxGeometry x="101" y="1584" width="56" height="31.11" as="geometry" />
        </mxCell>
        <mxCell id="i0nZwowpKzq9zR_XvQ2A-139" value="" style="html=1;shadow=0;dashed=0;align=center;verticalAlign=middle;shape=mxgraph.arrows2.arrow;dy=0.6;dx=40;direction=north;notch=0;fillColor=#000000;" parent="1" vertex="1">
          <mxGeometry x="2060" y="1964" width="56" height="56" as="geometry" />
        </mxCell>
        <mxCell id="i0nZwowpKzq9zR_XvQ2A-140" value="" style="html=1;shadow=0;dashed=0;align=center;verticalAlign=middle;shape=mxgraph.arrows2.arrow;dy=0.6;dx=40;direction=south;notch=0;fillColor=#000000;" parent="1" vertex="1">
          <mxGeometry x="2060" y="2088" width="56" height="56" as="geometry" />
        </mxCell>
        <mxCell id="i0nZwowpKzq9zR_XvQ2A-141" value="" style="html=1;shadow=0;dashed=0;align=center;verticalAlign=middle;shape=mxgraph.arrows2.arrow;dy=0;dx=10;notch=0;fillColor=#000000;aspect=fixed;" parent="1" vertex="1">
          <mxGeometry x="2060" y="2038" width="56" height="31.11" as="geometry" />
        </mxCell>
        <mxCell id="i0nZwowpKzq9zR_XvQ2A-142" value="" style="html=1;shadow=0;dashed=0;align=center;verticalAlign=middle;shape=mxgraph.arrows2.arrow;dy=0.6;dx=40;direction=north;notch=0;fillColor=#000000;" parent="1" vertex="1">
          <mxGeometry x="3203" y="1928" width="56" height="56" as="geometry" />
        </mxCell>
        <mxCell id="i0nZwowpKzq9zR_XvQ2A-143" value="" style="html=1;shadow=0;dashed=0;align=center;verticalAlign=middle;shape=mxgraph.arrows2.arrow;dy=0.6;dx=40;direction=south;notch=0;fillColor=#000000;" parent="1" vertex="1">
          <mxGeometry x="3203" y="2052" width="56" height="56" as="geometry" />
        </mxCell>
        <mxCell id="i0nZwowpKzq9zR_XvQ2A-144" value="" style="html=1;shadow=0;dashed=0;align=center;verticalAlign=middle;shape=mxgraph.arrows2.arrow;dy=0;dx=10;notch=0;fillColor=#000000;aspect=fixed;" parent="1" vertex="1">
          <mxGeometry x="3203" y="2002" width="56" height="31.11" as="geometry" />
        </mxCell>
        <mxCell id="i0nZwowpKzq9zR_XvQ2A-145" value="" style="html=1;shadow=0;dashed=0;align=center;verticalAlign=middle;shape=mxgraph.arrows2.arrow;dy=0.6;dx=40;direction=north;notch=0;fillColor=#000000;" parent="1" vertex="1">
          <mxGeometry x="3720" y="1570" width="56" height="56" as="geometry" />
        </mxCell>
        <mxCell id="i0nZwowpKzq9zR_XvQ2A-146" value="" style="html=1;shadow=0;dashed=0;align=center;verticalAlign=middle;shape=mxgraph.arrows2.arrow;dy=0.6;dx=40;direction=south;notch=0;fillColor=#000000;" parent="1" vertex="1">
          <mxGeometry x="3720" y="1694" width="56" height="56" as="geometry" />
        </mxCell>
        <mxCell id="i0nZwowpKzq9zR_XvQ2A-147" value="" style="html=1;shadow=0;dashed=0;align=center;verticalAlign=middle;shape=mxgraph.arrows2.arrow;dy=0;dx=10;notch=0;fillColor=#000000;aspect=fixed;" parent="1" vertex="1">
          <mxGeometry x="3720" y="1644" width="56" height="31.11" as="geometry" />
        </mxCell>
        <mxCell id="i0nZwowpKzq9zR_XvQ2A-148" value="" style="html=1;shadow=0;dashed=0;align=center;verticalAlign=middle;shape=mxgraph.arrows2.arrow;dy=0.6;dx=40;direction=north;notch=0;fillColor=#000000;" parent="1" vertex="1">
          <mxGeometry x="3720" y="1236" width="56" height="56" as="geometry" />
        </mxCell>
        <mxCell id="i0nZwowpKzq9zR_XvQ2A-149" value="" style="html=1;shadow=0;dashed=0;align=center;verticalAlign=middle;shape=mxgraph.arrows2.arrow;dy=0.6;dx=40;direction=south;notch=0;fillColor=#000000;" parent="1" vertex="1">
          <mxGeometry x="3720" y="1360" width="56" height="56" as="geometry" />
        </mxCell>
        <mxCell id="i0nZwowpKzq9zR_XvQ2A-150" value="" style="html=1;shadow=0;dashed=0;align=center;verticalAlign=middle;shape=mxgraph.arrows2.arrow;dy=0;dx=10;notch=0;fillColor=#000000;aspect=fixed;" parent="1" vertex="1">
          <mxGeometry x="3720" y="1310" width="56" height="31.11" as="geometry" />
        </mxCell>
        <mxCell id="i0nZwowpKzq9zR_XvQ2A-159" value="" style="shape=mxgraph.arrows.u_turn_right_arrow;html=1;verticalLabelPosition=bottom;verticalAlign=top;strokeWidth=2;strokeColor=#000000;fillColor=#000000;" parent="1" vertex="1">
          <mxGeometry x="97" y="1752" width="56" height="56" as="geometry" />
        </mxCell>
        <mxCell id="i0nZwowpKzq9zR_XvQ2A-160" value="" style="shape=mxgraph.arrows.u_turn_left_arrow;html=1;verticalLabelPosition=bottom;verticalAlign=top;strokeWidth=2;strokeColor=#000000;fillColor=#000000;" parent="1" vertex="1">
          <mxGeometry x="97" y="1876" width="56" height="56" as="geometry" />
        </mxCell>
        <mxCell id="i0nZwowpKzq9zR_XvQ2A-161" value="" style="shape=lineEllipse;perimeter=ellipsePerimeter;whiteSpace=wrap;html=1;backgroundOutline=1;fillColor=#000000;" parent="1" vertex="1">
          <mxGeometry x="97" y="1814" width="56" height="56" as="geometry" />
        </mxCell>
        <mxCell id="i0nZwowpKzq9zR_XvQ2A-162" value="" style="shape=mxgraph.arrows.u_turn_right_arrow;html=1;verticalLabelPosition=bottom;verticalAlign=top;strokeWidth=2;strokeColor=#000000;fillColor=#000000;" parent="1" vertex="1">
          <mxGeometry x="578" y="1932" width="56" height="56" as="geometry" />
        </mxCell>
        <mxCell id="i0nZwowpKzq9zR_XvQ2A-163" value="" style="shape=mxgraph.arrows.u_turn_left_arrow;html=1;verticalLabelPosition=bottom;verticalAlign=top;strokeWidth=2;strokeColor=#000000;fillColor=#000000;" parent="1" vertex="1">
          <mxGeometry x="578" y="2056" width="56" height="56" as="geometry" />
        </mxCell>
        <mxCell id="i0nZwowpKzq9zR_XvQ2A-164" value="" style="shape=lineEllipse;perimeter=ellipsePerimeter;whiteSpace=wrap;html=1;backgroundOutline=1;fillColor=#000000;" parent="1" vertex="1">
          <mxGeometry x="578" y="1994" width="56" height="56" as="geometry" />
        </mxCell>
        <mxCell id="i0nZwowpKzq9zR_XvQ2A-165" value="" style="shape=mxgraph.arrows.u_turn_right_arrow;html=1;verticalLabelPosition=bottom;verticalAlign=top;strokeWidth=2;strokeColor=#000000;fillColor=#000000;" parent="1" vertex="1">
          <mxGeometry x="1098" y="1932" width="56" height="56" as="geometry" />
        </mxCell>
        <mxCell id="i0nZwowpKzq9zR_XvQ2A-166" value="" style="shape=mxgraph.arrows.u_turn_left_arrow;html=1;verticalLabelPosition=bottom;verticalAlign=top;strokeWidth=2;strokeColor=#000000;fillColor=#000000;" parent="1" vertex="1">
          <mxGeometry x="1098" y="2056" width="56" height="56" as="geometry" />
        </mxCell>
        <mxCell id="i0nZwowpKzq9zR_XvQ2A-167" value="" style="shape=lineEllipse;perimeter=ellipsePerimeter;whiteSpace=wrap;html=1;backgroundOutline=1;fillColor=#000000;" parent="1" vertex="1">
          <mxGeometry x="1098" y="1994" width="56" height="56" as="geometry" />
        </mxCell>
        <mxCell id="i0nZwowpKzq9zR_XvQ2A-172" value="" style="shape=mxgraph.arrows.u_turn_right_arrow;html=1;verticalLabelPosition=bottom;verticalAlign=top;strokeWidth=2;strokeColor=#000000;fillColor=#000000;" parent="1" vertex="1">
          <mxGeometry x="3208" y="1576" width="56" height="56" as="geometry" />
        </mxCell>
        <mxCell id="i0nZwowpKzq9zR_XvQ2A-173" value="" style="shape=mxgraph.arrows.u_turn_left_arrow;html=1;verticalLabelPosition=bottom;verticalAlign=top;strokeWidth=2;strokeColor=#000000;fillColor=#000000;" parent="1" vertex="1">
          <mxGeometry x="3208" y="1700" width="56" height="56" as="geometry" />
        </mxCell>
        <mxCell id="i0nZwowpKzq9zR_XvQ2A-174" value="" style="shape=lineEllipse;perimeter=ellipsePerimeter;whiteSpace=wrap;html=1;backgroundOutline=1;fillColor=#000000;" parent="1" vertex="1">
          <mxGeometry x="3208" y="1638" width="56" height="56" as="geometry" />
        </mxCell>
        <mxCell id="i0nZwowpKzq9zR_XvQ2A-175" value="" style="shape=lineEllipse;perimeter=ellipsePerimeter;whiteSpace=wrap;html=1;backgroundOutline=1;fillColor=#000000;" parent="1" vertex="1">
          <mxGeometry x="2704" y="154" width="56" height="56" as="geometry" />
        </mxCell>
        <mxCell id="i0nZwowpKzq9zR_XvQ2A-176" value="" style="html=1;shadow=0;dashed=0;align=center;verticalAlign=middle;shape=mxgraph.arrows2.arrow;dy=0.6;dx=40;direction=north;notch=0;fillColor=#000000;" parent="1" vertex="1">
          <mxGeometry x="2704" y="216" width="56" height="56" as="geometry" />
        </mxCell>
        <mxCell id="i0nZwowpKzq9zR_XvQ2A-177" value="" style="html=1;shadow=0;dashed=0;align=center;verticalAlign=middle;shape=mxgraph.arrows2.arrow;dy=0.6;dx=40;direction=south;notch=0;fillColor=#000000;" parent="1" vertex="1">
          <mxGeometry x="2704" y="340" width="56" height="56" as="geometry" />
        </mxCell>
        <mxCell id="i0nZwowpKzq9zR_XvQ2A-178" value="" style="html=1;shadow=0;dashed=0;align=center;verticalAlign=middle;shape=mxgraph.arrows2.arrow;dy=0.6;dx=40;flipH=1;notch=0;fillColor=#000000;" parent="1" vertex="1">
          <mxGeometry x="2704" y="398" width="56" height="56" as="geometry" />
        </mxCell>
        <mxCell id="i0nZwowpKzq9zR_XvQ2A-179" value="" style="html=1;shadow=0;dashed=0;align=center;verticalAlign=middle;shape=mxgraph.arrows2.arrow;dy=0.6;dx=40;notch=0;fillColor=#000000;" parent="1" vertex="1">
          <mxGeometry x="2703" y="276" width="56" height="56" as="geometry" />
        </mxCell>
        <mxCell id="i0nZwowpKzq9zR_XvQ2A-180" value="" style="shape=lineEllipse;perimeter=ellipsePerimeter;whiteSpace=wrap;html=1;backgroundOutline=1;fillColor=#000000;" parent="1" vertex="1">
          <mxGeometry x="3226" y="92" width="56" height="56" as="geometry" />
        </mxCell>
        <mxCell id="i0nZwowpKzq9zR_XvQ2A-181" value="" style="html=1;shadow=0;dashed=0;align=center;verticalAlign=middle;shape=mxgraph.arrows2.arrow;dy=0.6;dx=40;direction=north;notch=0;fillColor=#000000;" parent="1" vertex="1">
          <mxGeometry x="3226" y="154" width="56" height="56" as="geometry" />
        </mxCell>
        <mxCell id="i0nZwowpKzq9zR_XvQ2A-182" value="" style="html=1;shadow=0;dashed=0;align=center;verticalAlign=middle;shape=mxgraph.arrows2.arrow;dy=0.6;dx=40;direction=south;notch=0;fillColor=#000000;" parent="1" vertex="1">
          <mxGeometry x="3226" y="278" width="56" height="56" as="geometry" />
        </mxCell>
        <mxCell id="i0nZwowpKzq9zR_XvQ2A-183" value="" style="html=1;shadow=0;dashed=0;align=center;verticalAlign=middle;shape=mxgraph.arrows2.arrow;dy=0.6;dx=40;flipH=1;notch=0;fillColor=#000000;" parent="1" vertex="1">
          <mxGeometry x="3226" y="336" width="56" height="56" as="geometry" />
        </mxCell>
        <mxCell id="i0nZwowpKzq9zR_XvQ2A-184" value="" style="html=1;shadow=0;dashed=0;align=center;verticalAlign=middle;shape=mxgraph.arrows2.arrow;dy=0.6;dx=40;notch=0;fillColor=#000000;" parent="1" vertex="1">
          <mxGeometry x="3226" y="214" width="56" height="56" as="geometry" />
        </mxCell>
        <mxCell id="i0nZwowpKzq9zR_XvQ2A-190" value="" style="shape=lineEllipse;perimeter=ellipsePerimeter;whiteSpace=wrap;html=1;backgroundOutline=1;fillColor=#000000;" parent="1" vertex="1">
          <mxGeometry x="97" y="796" width="56" height="56" as="geometry" />
        </mxCell>
        <mxCell id="i0nZwowpKzq9zR_XvQ2A-191" value="" style="html=1;shadow=0;dashed=0;align=center;verticalAlign=middle;shape=mxgraph.arrows2.arrow;dy=0.6;dx=40;direction=north;notch=0;fillColor=#000000;" parent="1" vertex="1">
          <mxGeometry x="97" y="858" width="56" height="56" as="geometry" />
        </mxCell>
        <mxCell id="i0nZwowpKzq9zR_XvQ2A-192" value="" style="html=1;shadow=0;dashed=0;align=center;verticalAlign=middle;shape=mxgraph.arrows2.arrow;dy=0.6;dx=40;direction=south;notch=0;fillColor=#000000;" parent="1" vertex="1">
          <mxGeometry x="97" y="982" width="56" height="56" as="geometry" />
        </mxCell>
        <mxCell id="i0nZwowpKzq9zR_XvQ2A-193" value="" style="html=1;shadow=0;dashed=0;align=center;verticalAlign=middle;shape=mxgraph.arrows2.arrow;dy=0.6;dx=40;flipH=1;notch=0;fillColor=#000000;" parent="1" vertex="1">
          <mxGeometry x="97" y="1040" width="56" height="56" as="geometry" />
        </mxCell>
        <mxCell id="i0nZwowpKzq9zR_XvQ2A-194" value="" style="html=1;shadow=0;dashed=0;align=center;verticalAlign=middle;shape=mxgraph.arrows2.arrow;dy=0.6;dx=40;notch=0;fillColor=#000000;" parent="1" vertex="1">
          <mxGeometry x="97" y="918" width="56" height="56" as="geometry" />
        </mxCell>
        <mxCell id="ay5571ugJkBJ0_q8Gwb4-1" value="" style="html=1;shadow=0;dashed=0;align=center;verticalAlign=middle;shape=mxgraph.arrows2.arrow;dy=0.6;dx=40;direction=north;notch=0;fillColor=#000000;" parent="1" vertex="1">
          <mxGeometry x="3730" y="212" width="56" height="56" as="geometry" />
        </mxCell>
        <mxCell id="ay5571ugJkBJ0_q8Gwb4-2" value="" style="html=1;shadow=0;dashed=0;align=center;verticalAlign=middle;shape=mxgraph.arrows2.arrow;dy=0.6;dx=40;direction=south;notch=0;fillColor=#000000;" parent="1" vertex="1">
          <mxGeometry x="3730" y="336" width="56" height="56" as="geometry" />
        </mxCell>
        <mxCell id="ay5571ugJkBJ0_q8Gwb4-3" value="" style="html=1;shadow=0;dashed=0;align=center;verticalAlign=middle;shape=mxgraph.arrows2.arrow;dy=0;dx=10;notch=0;fillColor=#000000;aspect=fixed;" parent="1" vertex="1">
          <mxGeometry x="3730" y="286" width="56" height="31.11" as="geometry" />
        </mxCell>
      </root>
    </mxGraphModel>
  </diagram>
</mxfile>
